
<svg version="1.0" xmlns="http://www.w3.org/2000/svg"
 width="32.000000pt" height="32.000000pt" viewBox="0 0 32.000000 32.000000"
 preserveAspectRatio="xMidYMid meet">

<g transform="translate(0.000000,32.000000) scale(0.100000,-0.100000)"
fill="#fff" stroke="none">
<path d="M12 308 c-21 -21 -13 -41 40 -95 l52 -53 -52 -53 c-53 -54 -61 -74
-40 -95 21 -21 41 -13 95 40 l53 52 53 -52 c54 -53 74 -61 95 -40 21 21 13 41
-40 95 l-52 53 52 53 c53 54 61 74 40 95 -21 21 -41 13 -95 -40 l-53 -52 -53
52 c-54 53 -74 61 -95 40z"/>
</g>
</svg>
